PathFileType	4	(X/Y/Z)	C:\Users\°ÂÌØÂü\Desktop\20210112\bx_y_0_501-Unnamed.trc
DataRate	CameraRate	NumFrames	NumMarkers	Units	OrigDataRate	OrigDataStartFrame	OrigNumFrames
50.00	50.00	       5	0	mm	50.00	528	       603
Frame#	Time	
		

528	10.540	-677.27686	-55.00644	1552.22107	-633.35681	285.39941	877.77075	-575.62872	220.67448	813.95544	-679.17108	268.44553	709.81763	-579.54956	4.07553	803.01392	-675.02100	-50.02059	733.42273	-722.52875	251.95616	638.87543	-586.20105	0.94607	1053.03723	-727.29492	248.16879	575.79578	-662.95496	23.43574	520.19092	-768.46277	255.84901	503.13971	-673.15955	208.94023	532.19720	-646.25836	-65.16749	866.09302	-663.14325	-66.48286	163.44775	-711.15466	152.42155	216.23610	-771.57751	222.14406	205.68053	-622.17200	-77.31624	159.44080	-882.51044	296.12030	144.67557	-675.73462	55.38707	156.84201	-603.78906	20.40993	165.77638	-675.62231	173.72820	156.95946	-594.57703	221.98105	173.34032	-667.34430	299.19199	159.97742	-629.75848	306.22861	162.12560	-559.79846	258.71021	165.92752	-528.03748	304.42899	146.51321	-666.25006	131.85472	1849.13037	-695.81476	308.21774	1537.09155	-517.31946	-72.47380	143.37895	-796.41138	171.81207	184.43880	-766.47125	-4.14533	209.06712	-794.43542	56.15335	175.17899	-685.77594	146.93674	572.87408	-759.26392	-30.80698	490.26492	-558.81934	-37.80699	165.02951	-876.13934	-78.71100	141.67271				-700.58063	-24.51590	613.56409	-711.79407	-20.64289	567.98151	-715.97217	78.64657	215.86311	-578.31024	225.74652	1071.68933	-784.08057	103.43546	1054.79395	-684.96631	84.09550	574.73029	
529	10.560	-677.67371	-55.04258	1552.19653	-633.35681	285.39941	877.77075	-575.56592	220.47549	813.90247	-679.10272	268.41556	709.77454	-579.56116	4.07972	803.23016	-675.02100	-50.02059	733.42273	-722.36609	251.78770	638.89685	-586.30682	0.73838	1052.95300	-727.29492	248.16879	575.79578	-663.01099	23.30791	520.05859	-768.54755	255.69347	503.23911	-673.11145	208.80988	532.27356	-646.56860	-65.18816	866.03259	-663.35248	-66.54388	163.54662	-711.15466	152.42155	216.23610	-771.60126	222.07780	205.56955	-622.11523	-77.28721	159.56758	-882.50006	296.18253	144.69447	-675.65515	55.09451	156.69252	-603.72632	20.24125	165.94737	-675.76160	173.81808	156.81932	-594.62158	221.96585	173.55997	-667.35126	299.36209	159.80457	-629.74799	306.08286	162.31053	-559.76416	258.92868	165.84438	-528.05469	304.65878	146.79016	-666.35291	131.93959	1849.10144	-695.81476	308.21774	1537.09155	-517.47083	-72.67113	143.14902	-796.33807	171.73003	184.52585	-766.41632	-4.27105	209.03625	-794.47156	56.06113	175.37836	-685.77594	146.93674	572.87408	-759.16840	-30.74809	490.23386	-558.94843	-37.82460	165.06114	-876.02838	-78.54763	141.55200				-700.60852	-24.59815	613.84320	-711.79272	-20.74565	568.10187	-716.28058	78.82071	215.70363	-578.20026	225.65971	1071.77148	-784.08075	103.55432	1054.78418	-685.08228	83.98981	574.68903	
530	10.580	-677.99042	-54.91370	1552.19263	-633.37549	285.37000	877.93701	-575.54388	220.40897	813.81757	-678.75372	268.08997	709.79742	-579.41632	3.94705	803.21600	-675.06812	-50.05830	733.33801	-722.24561	251.81142	638.83740	-586.39746	0.53478	1053.33533	-727.29492	248.16879	575.79578	-663.16156	23.37694	519.98102	-768.40277	255.76128	503.17111	-673.27362	208.81763	532.32336	-646.56860	-65.18816	866.03259	-663.16101	-66.48447	163.60977	-711.09863	152.27873	216.36069	-771.54938	222.15044	205.47615	-622.27863	-77.08631	159.48047	-882.53644	296.19745	144.72226	-675.54816	55.36740	156.81166	-603.66516	20.48846	165.78951	-675.62231	173.72820	156.95946	-594.55292	221.89792	173.22702	-667.40826	299.30170	159.81854	-629.81067	306.19730	162.20264	-559.68188	258.79691	165.88408	-528.20477	304.51352	146.58266	-666.25897	132.07137	1849.06555	-695.80389	308.31516	1537.01465	-517.52966	-72.38346	142.60010	-796.23743	171.84999	184.38072	-766.49158	-4.13227	209.04237	-794.45465	55.96606	175.49971	-686.06409	146.73834	572.92273	-758.99640	-30.84052	490.31924	-558.84503	-37.79493	165.03755	-876.05139	-78.44123	141.62697				-700.63898	-24.63932	613.74945	-711.79407	-20.64289	567.98151	-715.97217	78.64657	215.86311	-578.20972	225.58696	1071.66833	-784.08075	103.55432	1054.78418	
531	10.600	-678.17908	-55.01668	1552.19861	-632.92633	285.12579	878.07007	-575.31097	220.44144	813.99371	-678.53143	267.93518	709.45026	-579.38947	3.83753	803.33850	-675.06812	-50.05830	733.33801	-722.27087	251.76781	638.79126	-586.46613	0.44648	1053.01660	-727.29492	248.16879	575.79578	-662.80450	23.13587	519.98987	-768.39435	255.61905	503.11389	-673.17816	208.82030	532.30054	-646.49146	-65.41510	866.01758	-663.22339	-66.66521	163.72168	-711.00934	152.23827	216.44478	-771.55298	222.17708	205.37389	-622.19482	-77.17448	159.52756	-882.47626	296.21518	144.76204	-675.45569	55.27740	156.54347	-603.56049	20.39303	165.90758	-675.68457	173.59409	157.07463	-594.47949	221.84859	173.33556	-667.18030	299.15750	159.86757	-629.81067	306.19730	162.20264	-559.80231	258.87939	165.92484	-527.95721	304.59146	146.92218	-666.28986	132.27184	1848.99097	-695.74451	308.31985	1536.97974	-517.58459	-72.55640	142.97298	-796.29547	171.89551	184.35065	-766.39581	-4.22653	209.18196	-794.47156	56.06113	175.37836	-686.06409	146.73834	572.92273	-759.08734	-30.78392	490.28384	-558.72449	-37.97362	165.27420	-876.13446	-78.66106	141.72231				-700.77704	-24.41162	613.63116	-711.79407	-20.64289	567.98151	-716.28058	78.82071	215.70363	-578.14447	225.50429	1071.76074	-784.10974	103.54800	1054.70984	
532	10.620	-678.31274	-55.07241	1552.23157	-633.11572	285.26285	877.82690	-575.23462	220.31593	813.92444				-579.56970	3.82441	803.11786	-675.06812	-50.05830	733.33801	-721.99585	251.74405	638.95221	-586.70740	0.34347	1053.25403	-727.23926	248.09727	575.96167	-663.01099	23.30791	520.05859	-768.38788	255.73622	503.22586	-673.03986	208.76912	532.10504	-646.58606	-65.48763	865.87231	-663.30670	-66.56260	163.73322	-711.06531	152.38107	216.32019	-771.60126	222.07780	205.56955	-622.17938	-77.25129	159.49413	-882.55603	296.02304	144.55736	-675.58575	55.30542	156.91814	-603.72632	20.24125	165.94737	-675.62231	173.72820	156.95946	-594.58838	221.77007	173.12215	-667.18030	299.15750	159.86757	-629.95978	305.96844	162.23528	-559.77649	258.78464	165.75230	-528.04419	304.62152	146.80469	-666.25482	132.27689	1849.09619	-695.77655	308.50793	1536.88782	-517.28723	-72.69038	143.39026	-796.39612	171.77554	184.49576	-766.39581	-4.22653	209.18196	-794.55414	56.29696	175.29123	-685.77594	146.93674	572.87408	-758.99640	-30.84052	490.31924	-558.90613	-37.73350	164.91631	-876.05139	-78.44123	141.62697	-685.08228	83.98981	574.68903	-700.81403	-24.50651	613.46155	-711.88910	-20.83631	567.88159	-716.18665	78.83902	215.64311	-578.15814	225.53603	1071.92944	-784.01459	103.66167	1054.73901	
